<svg width="30" height="30" viewBox="0 0 30 30" fill="none" xmlns="http://www.w3.org/2000/svg"><g id="budget"><path id="Icon" d="M17.0648 10.075C16.292 10.6259 15.3464 10.95 14.325 10.95C11.7155 10.95 9.6 8.83455 9.6 6.225C9.6 3.61545 11.7155 1.5 14.325 1.5C16.0165 1.5 17.5005 2.38886 18.3352 3.72499M6.9 25.9177H10.4239C10.8833 25.9177 11.34 25.9723 11.7854 26.0817L15.5088 26.9865C16.3167 27.1833 17.1583 27.2024 17.9747 27.0439L22.0915 26.243C23.179 26.0311 24.1794 25.5104 24.9635 24.7477L27.8762 21.9143C28.7079 21.1065 28.7079 19.7958 27.8762 18.9866C27.1273 18.2581 25.9414 18.1761 25.0941 18.7939L21.6995 21.2706C21.2134 21.6259 20.6218 21.8173 20.0134 21.8173H16.7354L18.8219 21.8172C19.998 21.8172 20.9506 20.8905 20.9506 19.7465V19.3323C20.9506 18.3824 20.286 17.5541 19.339 17.3245L16.1186 16.5414C15.5945 16.4142 15.0578 16.35 14.5182 16.35C13.2157 16.35 10.8581 17.4284 10.8581 17.4284L6.9 19.0836M25.8 7.575C25.8 10.1845 23.6845 12.3 21.075 12.3C18.4655 12.3 16.35 10.1845 16.35 7.575C16.35 4.96545 18.4655 2.85 21.075 2.85C23.6845 2.85 25.8 4.96545 25.8 7.575ZM1.5 18.51L1.5 26.34C1.5 27.0961 1.5 27.4741 1.64714 27.7629C1.77657 28.0169 1.98309 28.2234 2.23711 28.3529C2.52589 28.5 2.90393 28.5 3.66 28.5H4.74C5.49607 28.5 5.87411 28.5 6.16289 28.3529C6.41691 28.2234 6.62343 28.0169 6.75286 27.7629C6.9 27.4741 6.9 27.0961 6.9 26.34V18.51C6.9 17.7539 6.9 17.3759 6.75286 17.0871C6.62343 16.8331 6.41691 16.6266 6.16289 16.4971C5.87411 16.35 5.49607 16.35 4.74 16.35L3.66 16.35C2.90393 16.35 2.52589 16.35 2.23711 16.4971C1.98309 16.6266 1.77657 16.8331 1.64714 17.0871C1.5 17.3759 1.5 17.7539 1.5 18.51Z" stroke="#12192B" stroke-width="2" stroke-linejoin="round"/></g></svg>