<svg width="32" height="30" viewBox="0 0 32 30" fill="none" xmlns="http://www.w3.org/2000/svg"><g id="function_devmode"><path id="Icon" d="M25.8562 27C27.7492 27 29.2852 25.4655 29.2852 23.571V16.7145L30.9997 15L29.2852 13.2855V6.429C29.2852 4.5345 27.7507 3 25.8562 3M6.1435 3C4.249 3 2.7145 4.5345 2.7145 6.429V13.2855L1 15L2.7145 16.7145V23.571C2.7145 25.4655 4.249 27 6.1435 27" stroke="#12192B" stroke-width="2" stroke-linecap="round" stroke-linejoin="round"/><path id="Union" fill-rule="evenodd" clip-rule="evenodd" d="M17.7571 11.3136C18.0843 9.67761 19.5207 8.5 21.1891 8.5H22C22.5523 8.5 23 8.05228 23 7.5C23 6.94772 22.5523 6.5 22 6.5H21.1891C18.5674 6.5 16.3101 8.35053 15.7959 10.9214L15.1802 14H13C12.4477 14 12 14.4477 12 15C12 15.5523 12.4477 16 13 16H14.7802L14.2429 18.6864C13.9157 20.3224 12.4793 21.5 10.8109 21.5H10C9.44772 21.5 9 21.9477 9 22.5C9 23.0523 9.44772 23.5 10 23.5H10.8109C13.4326 23.5 15.6899 21.6495 16.2041 19.0786L16.8198 16H19C19.5523 16 20 15.5523 20 15C20 14.4477 19.5523 14 19 14H17.2198L17.7571 11.3136Z" fill="#12192B"/></g></svg>