<svg width="40" height="40" viewBox="0 0 40 40" fill="none" xmlns="http://www.w3.org/2000/svg"><g id="file-05"><path id="Union" fill-rule="evenodd" clip-rule="evenodd" d="M30 24C30 23.4477 29.5523 23 29 23C28.4477 23 28 23.4477 28 24V28H24C23.4477 28 23 28.4477 23 29C23 29.5523 23.4477 30 24 30H28V34C28 34.5523 28.4477 35 29 35C29.5523 35 30 34.5523 30 34V30H34C34.5523 30 35 29.5523 35 29C35 28.4477 34.5523 28 34 28H30V24Z" fill="#12192B"/><rect id="Rectangle" x="5.5" y="5.5" width="11" height="11" rx="3" stroke="#12192B" stroke-width="2" stroke-linecap="round" stroke-linejoin="round"/><circle id="Ellipse 6" cx="11" cy="29" r="6" stroke="#12192B" stroke-width="2" stroke-linecap="round" stroke-linejoin="round"/><circle id="Ellipse 6_2" cx="29" cy="11" r="6" stroke="#12192B" stroke-width="2" stroke-linecap="round" stroke-linejoin="round"/></g></svg>