<svg width="80" height="80" viewBox="0 0 80 80" fill="none" xmlns="http://www.w3.org/2000/svg">
<rect width="80" height="80" rx="24" fill="#E6F5FF"/>
<path fill-rule="evenodd" clip-rule="evenodd" d="M64.5962 15.4037C66.3986 17.2061 66.9811 19.8956 66.0861 22.2822L51.0861 62.2822C49.9827 65.2247 46.9323 66.9563 43.8402 66.3956C40.7482 65.8349 38.5 63.1425 38.5 59.9999V25.6249C38.5 22.9155 40.1807 20.4902 42.7177 19.5388L57.7177 13.9138C60.1043 13.0188 62.7938 13.6014 64.5962 15.4037Z" fill="#05BE75"/>
<path fill-rule="evenodd" clip-rule="evenodd" d="M64.5958 15.4037C66.3982 17.2061 66.9808 19.8956 66.0858 22.2822L60.4608 37.2822C59.5094 39.8192 57.0841 41.4999 54.3746 41.4999H19.9996C16.8571 41.4999 14.1647 39.2518 13.604 36.1597C13.0432 33.0676 14.7749 30.0172 17.7173 28.9138L57.7173 13.9138C60.104 13.0188 62.7935 13.6014 64.5958 15.4037Z" fill="#0A9DFF"/>
<path fill-rule="evenodd" clip-rule="evenodd" d="M66.0858 22.2822C66.9808 19.8956 66.3982 17.2061 64.5958 15.4037C63.355 14.1629 61.6937 13.5002 60.0002 13.4998C59.234 13.4996 58.4611 13.635 57.7177 13.9138L42.7177 19.5388C40.1807 20.4902 38.5 22.9155 38.5 25.6249V41.4999H54.3746C57.0841 41.4999 59.5094 39.8192 60.4608 37.2822L66.0858 22.2822Z" fill="#007575"/>
</svg>
