<svg width="30" height="31" viewBox="0 0 30 31" fill="none" xmlns="http://www.w3.org/2000/svg"><g id="message-square-01"><path id="Icon" d="M1.5 8.7C1.5 6.17976 1.5 4.91965 1.99047 3.95704C2.4219 3.11031 3.11031 2.4219 3.95704 1.99047C4.91965 1.5 6.17976 1.5 8.7 1.5H21.3C23.8202 1.5 25.0804 1.5 26.043 1.99047C26.8897 2.4219 27.5781 3.11031 28.0095 3.95704C28.5 4.91965 28.5 6.17976 28.5 8.7V16.8C28.5 19.3202 28.5 20.5804 28.0095 21.543C27.5781 22.3897 26.8897 23.0781 26.043 23.5095C25.0804 24 23.8202 24 21.3 24H11.5256C10.5895 24 10.1215 24 9.67382 24.0919C9.27664 24.1734 8.8923 24.3082 8.53123 24.4927C8.12425 24.7006 7.75878 24.993 7.02782 25.5777L3.44963 28.4403C2.82551 28.9396 2.51344 29.1892 2.25081 29.1895C2.0224 29.1898 1.80633 29.0859 1.66384 28.9074C1.5 28.7022 1.5 28.3025 1.5 27.5033V8.7Z" stroke="#12192B" stroke-width="2" stroke-linecap="round" stroke-linejoin="round"/></g></svg>