<svg width="80" height="80" viewBox="0 0 80 80" fill="none" xmlns="http://www.w3.org/2000/svg">
<rect width="80" height="80" rx="24" fill="#FF7733" fill-opacity="0.1"/>
<path d="M28.685 53.1377L35.6222 44.8234L38.7951 48.8247L32.6787 56.5127C30.337 59.4558 26.0027 56.3541 28.685 53.1377ZM36.7858 34.2023C37.4466 32.0707 37.1432 30.2509 34.6599 27.5459L28.594 20.3315C27.7325 19.3315 25.7044 20.7998 26.5524 22.0097L31.4043 27.9177C32.3214 29.0193 30.617 30.4776 29.6695 29.3426L24.6507 23.2332C23.7167 22.1749 21.7847 23.5732 22.7625 24.7831C24.1769 26.4646 26.3669 29.2128 27.7813 30.8942C28.7625 31.8808 27.2705 33.3424 26.3028 32.1108L21.3211 26.0445C20.5911 25.2595 19.3958 25.7478 19.0789 26.6644C18.7383 27.6444 19.5762 28.3593 20.1461 29.0859L25.7044 36.1839C27.429 38.1604 29.3577 39.3303 31.5998 38.667C31.9437 38.5653 32.3635 38.357 32.8136 38.0837L47.7503 57.1424C48.5544 58.169 50.1054 58.2773 51.1136 57.449L51.3445 57.2607C52.4791 56.3275 52.6629 54.6226 51.6918 53.521L35.8752 35.5575C36.3355 35.0492 36.6728 34.5672 36.7858 34.2023ZM41.014 38.3586L43.4736 35.4105C40.311 27.6594 52.0328 17.3284 57.7141 22.0781C64.6177 27.8543 54.3576 41.7733 47.1473 38.3338L44.2341 41.9919L41.014 38.3586Z" fill="#05BE75"/>
</svg>
