<svg width="144" height="40" viewBox="0 0 144 40" fill="#12192B" xmlns="http://www.w3.org/2000/svg" class="sc-KLwla fiKZWJ"><path d="M32.7124 40C24.2852 39.2408 18.0864 35.2331 14.5806 27.3982C13.6459 25.3099 12.7232 23.2152 11.77 21.1355C11.09 19.6526 9.33927 19.1838 7.98678 20.1075C7.29585 20.5785 6.63321 21.0893 5.94881 21.5699C5.4059 21.9495 4.7614 22.1617 4.09661 22.1797C3.43182 22.1977 2.77653 22.0207 2.21342 21.671C1.10684 20.9785 0.493164 19.6537 0.711869 18.43C0.962128 17.0321 1.9414 16.0255 3.35156 15.7417C3.81946 15.6398 4.30446 15.6426 4.77114 15.7498C5.23781 15.8569 5.67437 16.0658 6.04891 16.3611C6.71482 16.8654 7.35461 17.4041 8.01507 17.9149C9.35777 18.9515 11.1422 18.5999 11.9528 17.1235C13.079 15.0728 14.1802 13.0082 15.302 10.9543C18.5662 4.97977 23.5714 1.34086 30.3556 0.263382C35.2833 -0.531803 40.3349 0.487851 44.5524 3.12897C48.77 5.77008 51.8601 9.84899 53.2368 14.5921C55.3923 21.9968 52.8963 30.0865 46.926 35.0911C43.8589 37.6948 40.0751 39.3341 36.0593 39.7989C34.9854 39.929 33.8995 39.9323 32.7124 40ZM18.8556 19.4612C18.5716 27.3681 24.926 34.0459 33.017 34.3416C41.108 34.6373 47.9684 28.4144 48.2513 20.4892C48.5342 12.5641 42.1819 5.90778 34.0866 5.60776C25.9913 5.30775 19.1407 11.5317 18.8556 19.4591V19.4612Z"/><path d="M73.3848 12.2812V26.5H70.4648V12.2812H73.3848ZM79.1656 18.1211V26.5H76.3434V15.9336H78.9898L79.1656 18.1211ZM78.775 20.8457H77.9938C77.9938 20.11 78.0816 19.4329 78.2574 18.8145C78.4397 18.1895 78.7034 17.6491 79.0484 17.1934C79.4 16.7311 79.8329 16.373 80.3473 16.1191C80.8616 15.8652 81.4573 15.7383 82.1344 15.7383C82.6031 15.7383 83.0328 15.8099 83.4234 15.9531C83.8141 16.0898 84.1493 16.3079 84.4293 16.6074C84.7158 16.9004 84.9371 17.2845 85.0934 17.7598C85.2496 18.2285 85.3277 18.7917 85.3277 19.4492V26.5H82.5152V19.7617C82.5152 19.2799 82.4501 18.9089 82.3199 18.6484C82.1897 18.388 82.0042 18.2057 81.7633 18.1016C81.5289 17.9974 81.2457 17.9453 80.9137 17.9453C80.5491 17.9453 80.2301 18.0202 79.9566 18.1699C79.6897 18.3197 79.4684 18.528 79.2926 18.7949C79.1168 19.0553 78.9866 19.3613 78.902 19.7129C78.8173 20.0645 78.775 20.4421 78.775 20.8457ZM85.0641 20.5234L84.0582 20.6504C84.0582 19.9603 84.1428 19.319 84.3121 18.7266C84.4879 18.1341 84.7451 17.6133 85.0836 17.1641C85.4286 16.7148 85.8551 16.3665 86.3629 16.1191C86.8707 15.8652 87.4566 15.7383 88.1207 15.7383C88.6285 15.7383 89.0908 15.8132 89.5074 15.9629C89.9241 16.1061 90.2789 16.3372 90.5719 16.6562C90.8714 16.9688 91.0992 17.3789 91.2555 17.8867C91.4182 18.3945 91.4996 19.0163 91.4996 19.752V26.5H88.6773V19.752C88.6773 19.2637 88.6122 18.8926 88.482 18.6387C88.3583 18.3783 88.176 18.1992 87.9352 18.1016C87.7008 17.9974 87.4208 17.9453 87.0953 17.9453C86.7568 17.9453 86.4605 18.0137 86.2066 18.1504C85.9527 18.2806 85.7411 18.4629 85.5719 18.6973C85.4026 18.9316 85.2757 19.2051 85.191 19.5176C85.1064 19.8236 85.0641 20.1589 85.0641 20.5234ZM99.7805 24.1172V19.4102C99.7805 19.0716 99.7251 18.7819 99.6145 18.541C99.5038 18.2936 99.3312 18.1016 99.0969 17.9648C98.869 17.8281 98.5728 17.7598 98.2082 17.7598C97.8957 17.7598 97.6255 17.8151 97.3977 17.9258C97.1698 18.0299 96.994 18.1829 96.8703 18.3848C96.7466 18.5801 96.6848 18.8112 96.6848 19.0781H93.8723C93.8723 18.6289 93.9764 18.2025 94.1848 17.7988C94.3931 17.3952 94.6958 17.0404 95.093 16.7344C95.4901 16.4219 95.9621 16.1777 96.509 16.002C97.0624 15.8262 97.6809 15.7383 98.3645 15.7383C99.1848 15.7383 99.9139 15.875 100.552 16.1484C101.19 16.4219 101.691 16.832 102.056 17.3789C102.427 17.9258 102.612 18.6094 102.612 19.4297V23.9512C102.612 24.5306 102.648 25.0059 102.72 25.377C102.792 25.7415 102.896 26.0605 103.032 26.334V26.5H100.191C100.054 26.2135 99.9497 25.8555 99.8781 25.4258C99.813 24.9896 99.7805 24.5534 99.7805 24.1172ZM100.152 20.0645L100.171 21.6562H98.5988C98.2277 21.6562 97.9055 21.6986 97.632 21.7832C97.3586 21.8678 97.134 21.9883 96.9582 22.1445C96.7824 22.2943 96.6522 22.4701 96.5676 22.6719C96.4895 22.8737 96.4504 23.0951 96.4504 23.3359C96.4504 23.5768 96.5057 23.7949 96.6164 23.9902C96.7271 24.179 96.8866 24.3288 97.0949 24.4395C97.3033 24.5436 97.5474 24.5957 97.8273 24.5957C98.2505 24.5957 98.6184 24.5111 98.9309 24.3418C99.2434 24.1725 99.4842 23.9642 99.6535 23.7168C99.8293 23.4694 99.9204 23.235 99.927 23.0137L100.669 24.2051C100.565 24.472 100.422 24.7487 100.239 25.0352C100.064 25.3216 99.8391 25.5918 99.5656 25.8457C99.2922 26.0931 98.9634 26.2982 98.5793 26.4609C98.1952 26.6172 97.7395 26.6953 97.2121 26.6953C96.5415 26.6953 95.9328 26.5618 95.3859 26.2949C94.8456 26.0215 94.4159 25.6471 94.0969 25.1719C93.7844 24.6901 93.6281 24.1432 93.6281 23.5312C93.6281 22.9779 93.7323 22.4863 93.9406 22.0566C94.149 21.627 94.4549 21.2656 94.8586 20.9727C95.2687 20.6732 95.7798 20.4486 96.3918 20.2988C97.0038 20.1426 97.7134 20.0645 98.5207 20.0645H100.152ZM111.87 15.9336H114.419V26.1484C114.419 27.112 114.204 27.929 113.774 28.5996C113.351 29.2767 112.759 29.7878 111.997 30.1328C111.235 30.4844 110.35 30.6602 109.341 30.6602C108.898 30.6602 108.429 30.6016 107.934 30.4844C107.446 30.3672 106.977 30.1849 106.528 29.9375C106.085 29.6901 105.714 29.3776 105.415 29L106.655 27.3398C106.981 27.7174 107.358 28.0104 107.788 28.2188C108.218 28.4336 108.693 28.541 109.214 28.541C109.721 28.541 110.151 28.4466 110.503 28.2578C110.854 28.0755 111.124 27.8053 111.313 27.4473C111.502 27.0957 111.596 26.6693 111.596 26.168V18.375L111.87 15.9336ZM104.761 21.3438V21.1387C104.761 20.3314 104.858 19.599 105.054 18.9414C105.255 18.2773 105.539 17.7077 105.903 17.2324C106.274 16.7572 106.723 16.3893 107.251 16.1289C107.778 15.8685 108.374 15.7383 109.038 15.7383C109.741 15.7383 110.33 15.8685 110.805 16.1289C111.281 16.3893 111.671 16.7604 111.977 17.2422C112.283 17.7174 112.521 18.2806 112.69 18.9316C112.866 19.5762 113.003 20.2826 113.1 21.0508V21.5C113.003 22.2357 112.856 22.9193 112.661 23.5508C112.466 24.1823 112.208 24.7357 111.889 25.2109C111.57 25.6797 111.173 26.0443 110.698 26.3047C110.229 26.5651 109.669 26.6953 109.018 26.6953C108.367 26.6953 107.778 26.5618 107.251 26.2949C106.73 26.028 106.284 25.6536 105.913 25.1719C105.542 24.6901 105.255 24.1237 105.054 23.4727C104.858 22.8216 104.761 22.112 104.761 21.3438ZM107.573 21.1387V21.3438C107.573 21.7799 107.615 22.1868 107.7 22.5645C107.785 22.9421 107.915 23.2773 108.091 23.5703C108.273 23.8568 108.498 24.0814 108.764 24.2441C109.038 24.4004 109.36 24.4785 109.731 24.4785C110.246 24.4785 110.665 24.3711 110.991 24.1562C111.317 23.9349 111.561 23.6322 111.723 23.248C111.886 22.8639 111.981 22.4212 112.007 21.9199V20.6406C111.994 20.2305 111.938 19.8626 111.841 19.5371C111.743 19.2051 111.606 18.9219 111.43 18.6875C111.255 18.4531 111.027 18.2708 110.747 18.1406C110.467 18.0104 110.135 17.9453 109.751 17.9453C109.38 17.9453 109.057 18.0299 108.784 18.1992C108.517 18.362 108.292 18.5866 108.11 18.873C107.934 19.1595 107.801 19.498 107.71 19.8887C107.619 20.2728 107.573 20.6895 107.573 21.1387ZM119.975 15.9336V26.5H117.153V15.9336H119.975ZM116.977 13.1797C116.977 12.7695 117.12 12.431 117.407 12.1641C117.693 11.8971 118.077 11.7637 118.559 11.7637C119.034 11.7637 119.415 11.8971 119.702 12.1641C119.995 12.431 120.141 12.7695 120.141 13.1797C120.141 13.5898 119.995 13.9284 119.702 14.1953C119.415 14.4622 119.034 14.5957 118.559 14.5957C118.077 14.5957 117.693 14.4622 117.407 14.1953C117.12 13.9284 116.977 13.5898 116.977 13.1797ZM127.064 24.498C127.41 24.498 127.715 24.4329 127.982 24.3027C128.249 24.166 128.458 23.9772 128.607 23.7363C128.764 23.4889 128.845 23.1992 128.852 22.8672H131.498C131.492 23.6094 131.293 24.2702 130.902 24.8496C130.512 25.4225 129.988 25.875 129.33 26.207C128.673 26.5326 127.937 26.6953 127.123 26.6953C126.303 26.6953 125.587 26.5586 124.975 26.2852C124.369 26.0117 123.865 25.6341 123.461 25.1523C123.057 24.6641 122.755 24.0977 122.553 23.4531C122.351 22.8021 122.25 22.1055 122.25 21.3633V21.0801C122.25 20.3314 122.351 19.6348 122.553 18.9902C122.755 18.3392 123.057 17.7728 123.461 17.291C123.865 16.8027 124.369 16.4219 124.975 16.1484C125.58 15.875 126.29 15.7383 127.104 15.7383C127.969 15.7383 128.728 15.9043 129.379 16.2363C130.036 16.5684 130.551 17.0436 130.922 17.6621C131.299 18.2741 131.492 19 131.498 19.8398H128.852C128.845 19.4883 128.77 19.1693 128.627 18.8828C128.49 18.5964 128.288 18.3685 128.021 18.1992C127.761 18.0234 127.439 17.9355 127.055 17.9355C126.645 17.9355 126.309 18.0234 126.049 18.1992C125.788 18.3685 125.587 18.6029 125.443 18.9023C125.3 19.1953 125.199 19.5306 125.141 19.9082C125.089 20.2793 125.062 20.6699 125.062 21.0801V21.3633C125.062 21.7734 125.089 22.1673 125.141 22.5449C125.193 22.9225 125.29 23.2578 125.434 23.5508C125.583 23.8438 125.788 24.0749 126.049 24.2441C126.309 24.4134 126.648 24.498 127.064 24.498ZM139.232 24.1172V19.4102C139.232 19.0716 139.177 18.7819 139.066 18.541C138.955 18.2936 138.783 18.1016 138.548 17.9648C138.321 17.8281 138.024 17.7598 137.66 17.7598C137.347 17.7598 137.077 17.8151 136.849 17.9258C136.621 18.0299 136.446 18.1829 136.322 18.3848C136.198 18.5801 136.136 18.8112 136.136 19.0781H133.324C133.324 18.6289 133.428 18.2025 133.636 17.7988C133.845 17.3952 134.147 17.0404 134.545 16.7344C134.942 16.4219 135.414 16.1777 135.961 16.002C136.514 15.8262 137.132 15.7383 137.816 15.7383C138.636 15.7383 139.365 15.875 140.004 16.1484C140.642 16.4219 141.143 16.832 141.507 17.3789C141.879 17.9258 142.064 18.6094 142.064 19.4297V23.9512C142.064 24.5306 142.1 25.0059 142.171 25.377C142.243 25.7415 142.347 26.0605 142.484 26.334V26.5H139.642C139.505 26.2135 139.401 25.8555 139.33 25.4258C139.265 24.9896 139.232 24.5534 139.232 24.1172ZM139.603 20.0645L139.623 21.6562H138.05C137.679 21.6562 137.357 21.6986 137.084 21.7832C136.81 21.8678 136.586 21.9883 136.41 22.1445C136.234 22.2943 136.104 22.4701 136.019 22.6719C135.941 22.8737 135.902 23.0951 135.902 23.3359C135.902 23.5768 135.957 23.7949 136.068 23.9902C136.179 24.179 136.338 24.3288 136.546 24.4395C136.755 24.5436 136.999 24.5957 137.279 24.5957C137.702 24.5957 138.07 24.5111 138.382 24.3418C138.695 24.1725 138.936 23.9642 139.105 23.7168C139.281 23.4694 139.372 23.235 139.379 23.0137L140.121 24.2051C140.017 24.472 139.873 24.7487 139.691 25.0352C139.515 25.3216 139.291 25.5918 139.017 25.8457C138.744 26.0931 138.415 26.2982 138.031 26.4609C137.647 26.6172 137.191 26.6953 136.664 26.6953C135.993 26.6953 135.384 26.5618 134.838 26.2949C134.297 26.0215 133.867 25.6471 133.548 25.1719C133.236 24.6901 133.08 24.1432 133.08 23.5312C133.08 22.9779 133.184 22.4863 133.392 22.0566C133.601 21.627 133.907 21.2656 134.31 20.9727C134.72 20.6732 135.231 20.4486 135.843 20.2988C136.455 20.1426 137.165 20.0645 137.972 20.0645H139.603Z"/></svg>