<svg width="40" height="40" viewBox="0 0 40 40" fill="none" xmlns="http://www.w3.org/2000/svg"><g id="globe-03"><path id="Ellipse 3017" d="M30.6066 30.6061C28.2717 32.941 25.2317 34.4401 21.9579 34.8711C18.6841 35.3021 15.3596 34.6409 12.5 32.9899C9.64038 31.3388 7.40544 28.7904 6.14181 25.7397C4.87819 22.6891 4.65649 19.3067 5.51112 16.1172" stroke="#12192B" stroke-width="2" stroke-linecap="round" stroke-linejoin="round"/><path id="Ellipse 3017_2" d="M9.39331 9.39342C11.7282 7.05854 14.7683 5.55935 18.042 5.12835C21.3158 4.69735 24.6403 5.35863 27.4999 7.00964C30.3595 8.66065 32.5945 11.2091 33.8581 14.2598C35.1217 17.3104 35.3434 20.6928 34.4888 23.8823" stroke="#12192B" stroke-width="2" stroke-linecap="round" stroke-linejoin="round"/><circle id="Ellipse 3017_3" cx="20" cy="20" r="8" stroke="#12192B" stroke-width="2" stroke-linecap="round" stroke-linejoin="round"/><path id="Vector" d="M20 15.5V20L22.5 22.5" stroke="#12192B" stroke-width="2" stroke-linecap="round" stroke-linejoin="round"/><path id="Vector_2" d="M8 6V11H13" stroke="#12192B" stroke-width="2" stroke-linecap="round" stroke-linejoin="round"/><path id="Vector_3" d="M32 34V29H27" stroke="#12192B" stroke-width="2" stroke-linecap="round" stroke-linejoin="round"/></g></svg>