<svg width="30" height="30" viewBox="0 0 30 30" fill="none" xmlns="http://www.w3.org/2000/svg"><g id="help"><path id="Icon" d="M15 28.5C22.4558 28.5 28.5 22.4558 28.5 15C28.5 7.54416 22.4558 1.5 15 1.5C7.54416 1.5 1.5 7.54416 1.5 15C1.5 22.4558 7.54416 28.5 15 28.5Z" stroke="#12192B" stroke-width="2" stroke-linecap="round" stroke-linejoin="round"/><path id="?" d="M13.1741 17.0566C13.1741 17.7913 13.6223 18.3142 14.4067 18.3142C15.1787 18.3142 15.5024 17.8784 15.7141 17.1562C15.9258 15.9858 16.2869 15.55 17.6316 14.4917C19.2876 13.2092 20.1841 12.1509 20.1841 10.3704C20.1841 7.70581 18.0176 6 14.8799 6C13.2363 6 11.9539 6.42334 11.0698 7.18286C10.2605 7.88013 9.75 8.82642 9.75 9.68555C9.75 10.3081 10.136 10.7812 10.8083 10.7812C11.3064 10.7812 11.5803 10.5696 11.9165 9.99683C12.5391 8.78906 13.4231 8.24121 14.7554 8.24121C16.262 8.24121 17.3701 9.1626 17.3701 10.4575C17.3701 11.5906 16.7725 12.2256 15.49 13.2466C13.697 14.6785 13.1741 15.5002 13.1741 17.0566ZM12.7507 21.9749C12.7507 22.8962 13.5103 23.5811 14.4316 23.5811C15.353 23.5811 16.1125 22.8962 16.1125 21.9749C16.1125 21.0535 15.353 20.3811 14.4316 20.3811C13.5103 20.3811 12.7507 21.0535 12.7507 21.9749Z" fill="#12192B"/></g></svg>