<svg width="32" height="30" viewBox="0 0 32 30" fill="none" xmlns="http://www.w3.org/2000/svg"><g id="image"><path id="Icon" d="M4.40814 28.0919L14.3029 18.1971C14.897 17.603 15.194 17.306 15.5365 17.1947C15.8377 17.0968 16.1623 17.0968 16.4635 17.1947C16.806 17.306 17.103 17.603 17.6971 18.1971L27.5259 28.0259M19 19.5L23.3029 15.1971C23.897 14.603 24.194 14.306 24.5365 14.1947C24.8377 14.0968 25.1623 14.0968 25.4635 14.1947C25.806 14.306 26.103 14.603 26.6971 15.1971L31 19.5M13 10.5C13 12.1569 11.6569 13.5 10 13.5C8.34315 13.5 7 12.1569 7 10.5C7 8.84315 8.34315 7.5 10 7.5C11.6569 7.5 13 8.84315 13 10.5ZM8.2 28.5H23.8C26.3202 28.5 27.5804 28.5 28.543 28.0095C29.3897 27.5781 30.0781 26.8897 30.5095 26.043C31 25.0804 31 23.8202 31 21.3V8.7C31 6.17976 31 4.91965 30.5095 3.95704C30.0781 3.11031 29.3897 2.4219 28.543 1.99047C27.5804 1.5 26.3202 1.5 23.8 1.5H8.2C5.67976 1.5 4.41965 1.5 3.45704 1.99047C2.61031 2.4219 1.9219 3.11031 1.49047 3.95704C1 4.91965 1 6.17976 1 8.7V21.3C1 23.8202 1 25.0804 1.49047 26.043C1.9219 26.8897 2.61031 27.5781 3.45704 28.0095C4.41965 28.5 5.67976 28.5 8.2 28.5Z" stroke="#12192B" stroke-width="2" stroke-linecap="round" stroke-linejoin="round"/></g></svg>