<svg width="30" height="30" viewBox="0 0 30 30" fill="none" xmlns="http://www.w3.org/2000/svg"><g id="globe"><path id="Icon" d="M15 1.5C18.3767 5.19678 20.2957 9.99425 20.4 15C20.2957 20.0058 18.3767 24.8032 15 28.5M15 1.5C11.6233 5.19678 9.70428 9.99425 9.6 15C9.70428 20.0058 11.6233 24.8032 15 28.5M15 1.5C7.54416 1.5 1.5 7.54416 1.5 15C1.5 22.4558 7.54416 28.5 15 28.5M15 1.5C22.4558 1.5 28.5 7.54416 28.5 15C28.5 22.4558 22.4558 28.5 15 28.5M2.17503 10.95H27.825M2.175 19.05H27.825" stroke="#12192B" stroke-width="2" stroke-linecap="round" stroke-linejoin="round"/></g></svg>